<svg width="754" height="206" viewBox="0 0 754 206" fill="none" xmlns="http://www.w3.org/2000/svg">
<path d="M425.122 141.025C427.939 141.025 430.582 140.483 433.052 139.4C435.565 138.273 438.057 136.843 440.527 135.11L449.692 148.11C446.659 150.71 442.954 152.877 438.577 154.61C434.244 156.343 429.39 157.21 424.017 157.21C416.607 157.21 410.237 155.693 404.907 152.66C399.577 149.583 395.482 145.337 392.622 139.92C389.762 134.46 388.332 128.133 388.332 120.94C388.332 113.747 389.784 107.355 392.687 101.765C395.634 96.1317 399.794 91.7117 405.167 88.505C410.584 85.2983 416.997 83.695 424.407 83.695C429.65 83.695 434.309 84.4317 438.382 85.905C442.499 87.335 446.269 89.48 449.692 92.34L440.787 104.69C438.447 103.043 435.977 101.765 433.377 100.855C430.777 99.945 428.069 99.49 425.252 99.49C420.615 99.49 416.867 101.137 414.007 104.43C411.19 107.68 409.782 113.183 409.782 120.94C409.782 126.01 410.454 130.018 411.797 132.965C413.14 135.868 414.96 137.948 417.257 139.205C419.597 140.418 422.219 141.025 425.122 141.025ZM456.726 155V141.22H465.826V99.62H456.726V85.97H481.491L485.261 101.505C487.731 95.5683 490.873 91.1483 494.686 88.245C498.543 85.3417 503.245 83.89 508.791 83.89C511.131 83.89 513.211 84.085 515.031 84.475C516.851 84.8217 518.563 85.32 520.166 85.97L513.926 102.935C512.67 102.588 511.413 102.328 510.156 102.155C508.9 101.982 507.513 101.895 505.996 101.895C501.49 101.895 497.525 103.737 494.101 107.42C490.721 111.103 488.143 115.783 486.366 121.46V141.22H500.016V155H456.726ZM503.461 114.83V94.68L506.516 85.97H520.166L516.331 114.83H503.461ZM588.885 85.97L565.875 155C563.839 161.11 561.13 166.223 557.75 170.34C554.414 174.5 550.232 177.707 545.205 179.96C540.222 182.213 534.22 183.535 527.2 183.925L524.86 169.43C529.41 168.867 533.072 168.022 535.845 166.895C538.662 165.768 540.915 164.23 542.605 162.28C544.339 160.373 545.834 157.947 547.09 155H540.07L518.165 85.97H539.875L553.265 141.87L567.825 85.97H588.885ZM629.395 83.695C635.418 83.695 640.271 85.19 643.955 88.18C647.638 91.17 650.325 95.395 652.015 100.855C653.748 106.315 654.615 112.793 654.615 120.29C654.615 127.397 653.575 133.745 651.495 139.335C649.415 144.882 646.403 149.258 642.46 152.465C638.516 155.628 633.728 157.21 628.095 157.21C621.378 157.21 615.918 154.805 611.715 149.995V181.65L591.175 183.795V85.97H609.375L610.285 93.705C613.101 90.1083 616.178 87.5517 619.515 86.035C622.851 84.475 626.145 83.695 629.395 83.695ZM623.025 98.84C620.641 98.84 618.54 99.555 616.72 100.985C614.9 102.415 613.231 104.365 611.715 106.835V135.955C613.145 138.078 614.64 139.638 616.2 140.635C617.803 141.632 619.688 142.13 621.855 142.13C625.495 142.13 628.333 140.483 630.37 137.19C632.406 133.853 633.425 128.307 633.425 120.55C633.425 114.83 633.013 110.41 632.19 107.29C631.366 104.127 630.175 101.938 628.615 100.725C627.055 99.4683 625.191 98.84 623.025 98.84ZM720.864 150.97C718.177 152.703 714.927 154.177 711.114 155.39C707.301 156.603 703.011 157.21 698.244 157.21C689.231 157.21 682.536 154.913 678.159 150.32C673.782 145.683 671.594 139.4 671.594 131.47V100.14H657.099V85.97H671.594V71.02L692.134 68.55V85.97H714.364L712.349 100.14H692.134V131.47C692.134 134.893 692.914 137.342 694.474 138.815C696.034 140.288 698.526 141.025 701.949 141.025C704.376 141.025 706.586 140.743 708.579 140.18C710.616 139.573 712.436 138.815 714.039 137.905L720.864 150.97Z" fill="url(#paint0_linear_234_7014)"/>
<path d="M255.027 104.311L237.022 105.419C236.715 103.88 236.053 102.495 235.037 101.264C234.022 100.002 232.683 99.0021 231.021 98.2635C229.39 97.4941 227.436 97.1094 225.158 97.1094C222.111 97.1094 219.541 97.7557 217.449 99.0483C215.356 100.31 214.309 102.003 214.309 104.126C214.309 105.819 214.986 107.25 216.341 108.42C217.695 109.589 220.018 110.528 223.311 111.236L236.145 113.821C243.039 115.237 248.179 117.514 251.564 120.653C254.95 123.793 256.642 127.917 256.642 133.026C256.642 137.673 255.273 141.751 252.534 145.259C249.825 148.768 246.101 151.507 241.362 153.477C236.653 155.415 231.221 156.385 225.066 156.385C215.679 156.385 208.2 154.431 202.63 150.522C197.09 146.583 193.843 141.228 192.889 134.457L212.232 133.441C212.817 136.303 214.232 138.488 216.479 139.996C218.726 141.474 221.603 142.212 225.112 142.212C228.559 142.212 231.329 141.551 233.422 140.227C235.545 138.873 236.622 137.134 236.653 135.011C236.622 133.226 235.868 131.764 234.391 130.625C232.914 129.455 230.636 128.563 227.559 127.947L215.279 125.501C208.354 124.116 203.199 121.715 199.814 118.299C196.459 114.883 194.782 110.528 194.782 105.234C194.782 100.679 196.013 96.7554 198.475 93.4624C200.968 90.1693 204.461 87.6302 208.954 85.8452C213.478 84.0601 218.772 83.1676 224.835 83.1676C233.791 83.1676 240.839 85.0604 245.978 88.8459C251.149 92.6314 254.165 97.7865 255.027 104.311ZM290.664 156.385C283.494 156.385 277.292 154.862 272.06 151.815C266.859 148.737 262.843 144.459 260.011 138.981C257.18 133.472 255.764 127.086 255.764 119.822C255.764 112.498 257.18 106.096 260.011 100.618C262.843 95.1089 266.859 90.831 272.06 87.7841C277.292 84.7064 283.494 83.1676 290.664 83.1676C297.835 83.1676 304.021 84.7064 309.223 87.7841C314.455 90.831 318.486 95.1089 321.318 100.618C324.149 106.096 325.565 112.498 325.565 119.822C325.565 127.086 324.149 133.472 321.318 138.981C318.486 144.459 314.455 148.737 309.223 151.815C304.021 154.862 297.835 156.385 290.664 156.385ZM290.757 141.151C294.019 141.151 296.743 140.227 298.928 138.381C301.113 136.503 302.76 133.949 303.868 130.717C305.006 127.486 305.576 123.808 305.576 119.684C305.576 115.56 305.006 111.882 303.868 108.651C302.76 105.419 301.113 102.865 298.928 100.987C296.743 99.1098 294.019 98.1712 290.757 98.1712C287.464 98.1712 284.694 99.1098 282.447 100.987C280.231 102.865 278.554 105.419 277.415 108.651C276.307 111.882 275.753 115.56 275.753 119.684C275.753 123.808 276.307 127.486 277.415 130.717C278.554 133.949 280.231 136.503 282.447 138.381C284.694 140.227 287.464 141.151 290.757 141.151ZM347.619 60.4545V155H327.953V60.4545H347.619ZM385.288 156.385C377.994 156.385 371.716 154.908 366.453 151.953C361.221 148.968 357.189 144.751 354.358 139.304C351.526 133.826 350.11 127.347 350.11 119.869C350.11 112.575 351.526 106.173 354.358 100.664C357.189 95.1551 361.175 90.8617 366.314 87.7841C371.485 84.7064 377.548 83.1676 384.503 83.1676C389.181 83.1676 393.536 83.9216 397.568 85.4297C401.63 86.907 405.17 89.1383 408.186 92.1236C411.233 95.1089 413.602 98.8636 415.295 103.388C416.988 107.881 417.834 113.144 417.834 119.176V124.577H357.958V112.39H399.322C399.322 109.558 398.707 107.05 397.475 104.865C396.244 102.68 394.536 100.972 392.351 99.7408C390.197 98.4789 387.689 97.848 384.826 97.848C381.841 97.848 379.194 98.5405 376.886 99.9254C374.609 101.28 372.823 103.111 371.531 105.419C370.238 107.696 369.577 110.236 369.546 113.036V124.624C369.546 128.132 370.192 131.164 371.485 133.718C372.808 136.272 374.67 138.242 377.071 139.627C379.471 141.012 382.318 141.705 385.611 141.705C387.796 141.705 389.797 141.397 391.613 140.781C393.428 140.166 394.983 139.242 396.275 138.011C397.568 136.78 398.553 135.272 399.23 133.487L417.419 134.688C416.495 139.058 414.603 142.874 411.74 146.136C408.909 149.368 405.247 151.892 400.753 153.707C396.291 155.492 391.135 156.385 385.288 156.385Z" fill="#EEC55F"/>
<path d="M1.51809 77.2611L73.9621 119.161C74.1497 119.27 74.2652 119.47 74.2652 119.687V203.88C74.2652 204.35 73.7557 204.641 73.351 204.404L0.907025 161.917C0.721219 161.808 0.607073 161.608 0.607073 161.393V77.7866C0.607073 77.3191 1.11337 77.027 1.51809 77.2611Z" stroke="#EEC55F" stroke-width="1.21415"/>
<path d="M76.5883 118.955L148.208 76.8835C148.614 76.6449 149.126 76.9399 149.123 77.4112L148.542 161.802C148.54 162.015 148.427 162.212 148.244 162.321L77.2051 204.392C76.8005 204.632 76.2887 204.34 76.2887 203.87V119.479C76.2887 119.264 76.4027 119.064 76.5883 118.955Z" stroke="#EEC55F" stroke-width="1.21415"/>
<path d="M2.11075 74.3471L74.2656 32.3875C74.4536 32.2782 74.6858 32.2778 74.8741 32.3864L147.627 74.3517C148.031 74.5847 148.032 75.1673 147.629 75.4021L75.2784 117.558C75.0897 117.668 74.8566 117.668 74.6678 117.558L2.11092 75.3968C1.70824 75.1628 1.70814 74.5812 2.11075 74.3471Z" stroke="#EEC55F" stroke-width="1.21415"/>
<path opacity="0.56" d="M7.96817 74.6623L18.6209 68.4675C18.8089 68.3582 19.041 68.3578 19.2294 68.4664L29.9788 74.6669C30.3828 74.8999 30.3841 75.4825 29.9811 75.7173L19.2994 81.9411C19.1107 82.051 18.8776 82.0511 18.6888 81.9414L7.96834 75.712C7.56566 75.478 7.56556 74.8964 7.96817 74.6623Z" stroke="#EEC55F" stroke-width="1.21415"/>
<path opacity="0.56" d="M21.9623 82.5339L32.615 76.3391C32.803 76.2298 33.0352 76.2294 33.2235 76.338L43.973 82.5385C44.377 82.7715 44.3782 83.3541 43.9753 83.5889L33.2936 89.8127C33.1049 89.9226 32.8717 89.9227 32.6829 89.813L21.9625 83.5836C21.5598 83.3496 21.5597 82.768 21.9623 82.5339Z" stroke="#EEC55F" stroke-width="1.21415"/>
<path opacity="0.56" d="M35.9564 90.4055L46.6092 84.2107C46.7972 84.1014 47.0293 84.1009 47.2177 84.2096L57.9671 90.4101C58.3711 90.6431 58.3724 91.2257 57.9694 91.4605L47.2877 97.6842C47.099 97.7942 46.8659 97.7943 46.6771 97.6846L35.9566 91.4552C35.5539 91.2212 35.5538 90.6396 35.9564 90.4055Z" stroke="#EEC55F" stroke-width="1.21415"/>
<path opacity="0.56" d="M49.9501 98.2772L60.6028 92.0824C60.7908 91.9731 61.023 91.9726 61.2113 92.0813L71.9608 98.2818C72.3647 98.5148 72.366 99.0974 71.9631 99.3322L61.2813 105.556C61.0927 105.666 60.8595 105.666 60.6707 105.556L49.9503 99.3269C49.5476 99.0929 49.5475 98.5113 49.9501 98.2772Z" stroke="#EEC55F" stroke-width="1.21415"/>
<path opacity="0.56" d="M63.9442 106.149L74.597 99.9541C74.785 99.8448 75.0171 99.8444 75.2055 99.953L85.9549 106.153C86.3589 106.387 86.3602 106.969 85.9572 107.204L75.2755 113.428C75.0868 113.538 74.8537 113.538 74.6649 113.428L63.9444 107.199C63.5417 106.965 63.5416 106.383 63.9442 106.149Z" stroke="#EEC55F" stroke-width="1.21415"/>
<path opacity="0.56" d="M35.9564 58.919L46.6092 52.7242C46.7972 52.6149 47.0293 52.6145 47.2177 52.7232L57.9671 58.9236C58.3711 59.1567 58.3724 59.7392 57.9694 59.974L47.2877 66.1978C47.099 66.3077 46.8659 66.3079 46.6771 66.1982L35.9566 59.9687C35.5539 59.7347 35.5538 59.1531 35.9564 58.919Z" stroke="#EEC55F" stroke-width="1.21415"/>
<path opacity="0.56" d="M49.9501 66.7906L60.6028 60.5958C60.7908 60.4865 61.023 60.4861 61.2113 60.5947L71.9608 66.7952C72.3647 67.0282 72.366 67.6108 71.9631 67.8456L61.2813 74.0694C61.0927 74.1793 60.8595 74.1794 60.6707 74.0697L49.9503 67.8403C49.5476 67.6063 49.5475 67.0247 49.9501 66.7906Z" stroke="#EEC55F" stroke-width="1.21415"/>
<path opacity="0.56" d="M63.9442 74.6623L74.597 68.4675C74.785 68.3582 75.0171 68.3578 75.2055 68.4664L85.9549 74.6669C86.3589 74.8999 86.3602 75.4825 85.9572 75.7173L75.2755 81.9411C75.0868 82.051 74.8537 82.0511 74.6649 81.9414L63.9444 75.712C63.5417 75.478 63.5416 74.8964 63.9442 74.6623Z" stroke="#EEC55F" stroke-width="1.21415"/>
<path opacity="0.56" d="M77.9384 82.5339L88.5911 76.3391C88.7791 76.2298 89.0112 76.2294 89.1996 76.338L99.9491 82.5385C100.353 82.7715 100.354 83.3541 99.9513 83.5889L89.2696 89.8127C89.081 89.9226 88.8478 89.9227 88.659 89.813L77.9386 83.5836C77.5359 83.3496 77.5358 82.768 77.9384 82.5339Z" stroke="#EEC55F" stroke-width="1.21415"/>
<path opacity="0.56" d="M91.9325 90.4055L102.585 84.2107C102.773 84.1014 103.005 84.1009 103.194 84.2096L113.943 90.4101C114.347 90.6431 114.348 91.2257 113.945 91.4605L103.264 97.6842C103.075 97.7942 102.842 97.7943 102.653 97.6846L91.9327 91.4552C91.53 91.2212 91.5299 90.6396 91.9325 90.4055Z" stroke="#EEC55F" stroke-width="1.21415"/>
<path opacity="0.56" d="M63.9442 43.1756L74.597 36.9808C74.785 36.8715 75.0171 36.8711 75.2055 36.9797L85.9549 43.1802C86.3589 43.4132 86.3602 43.9958 85.9572 44.2306L75.2755 50.4544C75.0868 50.5643 74.8537 50.5645 74.6649 50.4547L63.9444 44.2253C63.5417 43.9913 63.5416 43.4097 63.9442 43.1756Z" stroke="#EEC55F" stroke-width="1.21415"/>
<path opacity="0.56" d="M21.9623 66.7906L32.615 60.5958C32.803 60.4865 33.0352 60.4861 33.2235 60.5947L43.973 66.7952C44.377 67.0282 44.3782 67.6108 43.9753 67.8456L33.2936 74.0694C33.1049 74.1793 32.8717 74.1794 32.6829 74.0697L21.9625 67.8403C21.5598 67.6063 21.5597 67.0247 21.9623 66.7906Z" stroke="#EEC55F" stroke-width="1.21415"/>
<path opacity="0.56" d="M35.9564 74.6623L46.6092 68.4675C46.7972 68.3582 47.0293 68.3578 47.2177 68.4664L57.9671 74.6669C58.3711 74.8999 58.3724 75.4825 57.9694 75.7173L47.2877 81.9411C47.099 82.051 46.8659 82.0511 46.6771 81.9414L35.9566 75.712C35.5539 75.478 35.5538 74.8964 35.9564 74.6623Z" stroke="#EEC55F" stroke-width="1.21415"/>
<path opacity="0.56" d="M49.9501 82.5339L60.6028 76.3391C60.7908 76.2298 61.023 76.2294 61.2113 76.338L71.9608 82.5385C72.3647 82.7715 72.366 83.3541 71.9631 83.5889L61.2813 89.8127C61.0927 89.9226 60.8595 89.9227 60.6707 89.813L49.9503 83.5836C49.5476 83.3496 49.5475 82.768 49.9501 82.5339Z" stroke="#EEC55F" stroke-width="1.21415"/>
<path opacity="0.56" d="M63.9442 90.4055L74.597 84.2107C74.785 84.1014 75.0171 84.1009 75.2055 84.2096L85.9549 90.4101C86.3589 90.6431 86.3602 91.2257 85.9572 91.4605L75.2755 97.6842C75.0868 97.7942 74.8537 97.7943 74.6649 97.6846L63.9444 91.4552C63.5417 91.2212 63.5416 90.6396 63.9442 90.4055Z" stroke="#EEC55F" stroke-width="1.21415"/>
<path opacity="0.56" d="M77.9384 98.2772L88.5911 92.0824C88.7791 91.9731 89.0112 91.9726 89.1996 92.0813L99.9491 98.2818C100.353 98.5148 100.354 99.0974 99.9513 99.3322L89.2696 105.556C89.081 105.666 88.8478 105.666 88.659 105.556L77.9386 99.3269C77.5359 99.0929 77.5358 98.5113 77.9384 98.2772Z" stroke="#EEC55F" stroke-width="1.21415"/>
<path opacity="0.56" d="M49.9501 51.0473L60.6028 44.8525C60.7908 44.7432 61.023 44.7428 61.2113 44.8515L71.9608 51.0519C72.3647 51.2849 72.366 51.8675 71.9631 52.1023L61.2813 58.3261C61.0927 58.436 60.8595 58.4362 60.6707 58.3264L49.9503 52.097C49.5476 51.863 49.5475 51.2814 49.9501 51.0473Z" stroke="#EEC55F" stroke-width="1.21415"/>
<path opacity="0.56" d="M63.9442 58.919L74.597 52.7242C74.785 52.6149 75.0171 52.6145 75.2055 52.7232L85.9549 58.9236C86.3589 59.1567 86.3602 59.7392 85.9572 59.974L75.2755 66.1978C75.0868 66.3077 74.8537 66.3079 74.6649 66.1982L63.9444 59.9687C63.5417 59.7347 63.5416 59.1531 63.9442 58.919Z" stroke="#EEC55F" stroke-width="1.21415"/>
<path opacity="0.56" d="M77.9384 51.0473L88.5911 44.8525C88.7791 44.7432 89.0112 44.7428 89.1996 44.8515L99.9491 51.0519C100.353 51.2849 100.354 51.8675 99.9513 52.1023L89.2696 58.3261C89.081 58.436 88.8478 58.4362 88.659 58.3264L77.9386 52.097C77.5359 51.863 77.5358 51.2814 77.9384 51.0473Z" stroke="#EEC55F" stroke-width="1.21415"/>
<path opacity="0.56" d="M91.9325 58.919L102.585 52.7242C102.773 52.6149 103.005 52.6145 103.194 52.7232L113.943 58.9236C114.347 59.1567 114.348 59.7392 113.945 59.974L103.264 66.1978C103.075 66.3077 102.842 66.3079 102.653 66.1982L91.9327 59.9687C91.53 59.7347 91.5299 59.1531 91.9325 58.919Z" stroke="#EEC55F" stroke-width="1.21415"/>
<path opacity="0.56" d="M105.927 66.7906L116.579 60.5958C116.767 60.4865 117 60.4861 117.188 60.5947L127.937 66.7952C128.341 67.0282 128.343 67.6108 127.94 67.8456L117.258 74.0694C117.069 74.1793 116.836 74.1794 116.647 74.0697L105.927 67.8403C105.524 67.6063 105.524 67.0247 105.927 66.7906Z" stroke="#EEC55F" stroke-width="1.21415"/>
<path opacity="0.56" d="M119.921 74.6623L130.574 68.4675C130.762 68.3582 130.994 68.3578 131.182 68.4664L141.931 74.6669C142.335 74.8999 142.337 75.4825 141.934 75.7173L131.252 81.9411C131.063 82.051 130.83 82.0511 130.641 81.9414L119.921 75.712C119.518 75.478 119.518 74.8964 119.921 74.6623Z" stroke="#EEC55F" stroke-width="1.21415"/>
<path opacity="0.56" d="M77.9384 66.7906L88.5911 60.5958C88.7791 60.4865 89.0112 60.4861 89.1996 60.5947L99.9491 66.7952C100.353 67.0282 100.354 67.6108 99.9513 67.8456L89.2696 74.0694C89.081 74.1793 88.8478 74.1794 88.659 74.0697L77.9386 67.8403C77.5359 67.6063 77.5358 67.0247 77.9384 66.7906Z" stroke="#EEC55F" stroke-width="1.21415"/>
<path opacity="0.56" d="M91.9325 74.6623L102.585 68.4675C102.773 68.3582 103.005 68.3578 103.194 68.4664L113.943 74.6669C114.347 74.8999 114.348 75.4825 113.945 75.7173L103.264 81.9411C103.075 82.051 102.842 82.0511 102.653 81.9414L91.9327 75.712C91.53 75.478 91.5299 74.8964 91.9325 74.6623Z" stroke="#EEC55F" stroke-width="1.21415"/>
<path opacity="0.56" d="M105.927 82.5339L116.579 76.3391C116.767 76.2298 117 76.2294 117.188 76.338L127.937 82.5385C128.341 82.7715 128.343 83.3541 127.94 83.5889L117.258 89.8127C117.069 89.9226 116.836 89.9227 116.647 89.813L105.927 83.5836C105.524 83.3496 105.524 82.768 105.927 82.5339Z" stroke="#EEC55F" stroke-width="1.21415"/>
<defs>
<linearGradient id="paint0_linear_234_7014" x1="-235.133" y1="85" x2="754.065" y2="89.9461" gradientUnits="userSpaceOnUse">
<stop stop-color="#EEC55F"/>
<stop offset="1" stop-color="#887136"/>
</linearGradient>
</defs>
</svg>
